<svg width="235" height="62" viewBox="0 0 235 62" fill="none" xmlns="http://www.w3.org/2000/svg">
<g clip-path="url(#clip0_1720_6664)">
<path d="M74.005 37L69.0675 14.5H73.2706L77.0362 34.4844H76.6925L81.5831 14.5H86.4269L91.3019 34.4844H90.9737L94.7237 14.5H98.9425L93.9894 37H88.3019L83.7394 17.6875H84.255L79.6925 37H74.005ZM107.693 37.3906C106.058 37.3906 104.61 37.0312 103.349 36.3125C102.089 35.5938 101.099 34.5729 100.381 33.25C99.6619 31.9271 99.3025 30.3646 99.3025 28.5625C99.3025 26.7604 99.6567 25.1979 100.365 23.875C101.073 22.5521 102.052 21.5312 103.302 20.8125C104.552 20.0938 105.995 19.7344 107.631 19.7344C108.547 19.7344 109.469 19.875 110.396 20.1562C111.334 20.4375 112.188 20.9375 112.959 21.6562C113.74 22.3646 114.37 23.349 114.849 24.6094C115.329 25.8594 115.568 27.4479 115.568 29.375H101.787V26.9219H112.131L111.537 27.8125C111.474 26.5521 111.256 25.5417 110.881 24.7812C110.516 24.0104 110.042 23.4531 109.459 23.1094C108.886 22.7552 108.245 22.5781 107.537 22.5781C106.641 22.5781 105.886 22.8229 105.271 23.3125C104.657 23.7917 104.188 24.4844 103.865 25.3906C103.552 26.2865 103.396 27.349 103.396 28.5781C103.396 30.4115 103.756 31.849 104.474 32.8906C105.193 33.9219 106.256 34.4375 107.662 34.4375C108.62 34.4375 109.438 34.1927 110.115 33.7031C110.792 33.2135 111.297 32.4844 111.631 31.5156L115.224 32.5156C114.818 33.6094 114.24 34.5156 113.49 35.2344C112.74 35.9531 111.865 36.4948 110.865 36.8594C109.865 37.2135 108.808 37.3906 107.693 37.3906ZM127.678 37.3906C126.491 37.3906 125.386 37.1094 124.366 36.5469C123.355 35.974 122.558 35.0365 121.975 33.7344L122.162 33.6562V37H118.506V13.5625H122.381V23.5625L122.1 23.3125C122.631 22.0833 123.402 21.1823 124.412 20.6094C125.423 20.026 126.527 19.7344 127.725 19.7344C129.131 19.7344 130.35 20.0885 131.381 20.7969C132.423 21.5052 133.23 22.5208 133.803 23.8438C134.376 25.1667 134.662 26.75 134.662 28.5938C134.662 30.4167 134.371 31.9896 133.787 33.3125C133.215 34.625 132.407 35.6354 131.366 36.3438C130.324 37.0417 129.095 37.3906 127.678 37.3906ZM126.381 34.3906C127.621 34.3906 128.621 33.875 129.381 32.8438C130.142 31.8125 130.522 30.3646 130.522 28.5C130.522 26.6771 130.152 25.2604 129.412 24.25C128.673 23.2396 127.673 22.7344 126.412 22.7344C125.642 22.7344 124.933 22.9427 124.287 23.3594C123.652 23.7656 123.147 24.401 122.772 25.2656C122.397 26.1198 122.209 27.2083 122.209 28.5312C122.209 30.4896 122.61 31.9583 123.412 32.9375C124.225 33.9062 125.215 34.3906 126.381 34.3906ZM144.148 37V14.5H153.664C156.32 14.5 158.31 15.0521 159.632 16.1562C160.966 17.2604 161.632 18.8854 161.632 21.0312C161.632 23.1458 160.94 24.7656 159.554 25.8906C158.179 27.0052 156.091 27.5625 153.289 27.5625H148.195V37H144.148ZM148.195 24.375H153.476C154.81 24.375 155.825 24.0833 156.523 23.5C157.221 22.9062 157.57 22.0938 157.57 21.0625C157.57 20.1146 157.247 19.3177 156.601 18.6719C155.955 18.0156 154.898 17.6875 153.429 17.6875H148.195V24.375ZM167.633 37C166.602 37 165.784 36.7292 165.18 36.1875C164.576 35.6354 164.274 34.8802 164.274 33.9219V13.5625H168.149V33.2031C168.149 33.5469 168.196 33.776 168.289 33.8906C168.394 34.0052 168.607 34.0625 168.93 34.0625H170.352V37H167.633ZM177.478 37.3906C176.384 37.3906 175.399 37.1927 174.524 36.7969C173.649 36.401 172.957 35.8281 172.446 35.0781C171.936 34.3177 171.681 33.4115 171.681 32.3594C171.681 31.224 172.009 30.2344 172.665 29.3906C173.332 28.5365 174.311 27.875 175.603 27.4062C176.905 26.9375 178.514 26.7031 180.431 26.7031H182.962L182.681 27.0781V26.125C182.681 24.9167 182.451 24.0052 181.993 23.3906C181.535 22.776 180.774 22.4688 179.712 22.4688C178.701 22.4688 177.925 22.7344 177.384 23.2656C176.842 23.7969 176.53 24.5312 176.446 25.4688L172.399 24.7031C172.535 23.776 172.91 22.9375 173.524 22.1875C174.149 21.4375 174.998 20.8385 176.071 20.3906C177.144 19.9427 178.436 19.7188 179.946 19.7188C181.384 19.7188 182.587 19.9635 183.556 20.4531C184.524 20.9427 185.248 21.7031 185.728 22.7344C186.217 23.7552 186.462 25.0781 186.462 26.7031V33.2031C186.462 33.5469 186.509 33.776 186.603 33.8906C186.707 34.0052 186.92 34.0625 187.243 34.0625H188.087V37H186.071C185.05 37 184.254 36.7292 183.681 36.1875C183.108 35.6354 182.821 34.8802 182.821 33.9219V32.9688L183.478 33.1562C183.332 33.6042 183.118 34.0729 182.837 34.5625C182.556 35.0521 182.181 35.5104 181.712 35.9375C181.243 36.3646 180.66 36.7135 179.962 36.9844C179.274 37.2552 178.446 37.3906 177.478 37.3906ZM178.54 34.5938C179.321 34.5938 180.024 34.4115 180.649 34.0469C181.285 33.6719 181.785 33.1042 182.149 32.3438C182.524 31.5729 182.712 30.6042 182.712 29.4375V29.1562H180.493C179.274 29.1562 178.321 29.3177 177.634 29.6406C176.946 29.9531 176.462 30.3438 176.181 30.8125C175.899 31.2708 175.759 31.7292 175.759 32.1875C175.759 32.5833 175.847 32.9688 176.024 33.3438C176.212 33.7083 176.509 34.0104 176.915 34.25C177.321 34.4792 177.863 34.5938 178.54 34.5938ZM190.775 37V20.125H194.478V23.9844L194.369 23.2969C194.858 22.2344 195.577 21.375 196.525 20.7188C197.473 20.0625 198.624 19.7344 199.978 19.7344C201.239 19.7344 202.291 20.0208 203.134 20.5938C203.989 21.1562 204.629 21.9531 205.056 22.9844C205.494 24.0052 205.712 25.2031 205.712 26.5781V37H201.837V26.8438C201.837 25.5729 201.603 24.5729 201.134 23.8438C200.676 23.1042 199.9 22.7344 198.806 22.7344C197.546 22.7344 196.535 23.2448 195.775 24.2656C195.015 25.2865 194.634 26.8125 194.634 28.8438V37H190.775ZM213.463 37C212.442 37 211.63 36.7292 211.026 36.1875C210.421 35.6354 210.119 34.8802 210.119 33.9219V23.0625H207.588V20.125H210.119V16.7344L213.979 15.8281V20.125H217.198V23.0625H213.979V33.2031C213.979 33.5469 214.026 33.776 214.119 33.8906C214.224 34.0052 214.437 34.0625 214.76 34.0625H217.338V37H213.463ZM226.276 37.3906C225.026 37.3906 223.86 37.2031 222.776 36.8281C221.703 36.4427 220.802 35.8542 220.073 35.0625C219.354 34.2604 218.886 33.2344 218.667 31.9844L222.339 31.2656C222.443 32.3594 222.823 33.1771 223.479 33.7188C224.146 34.2604 225.031 34.5312 226.136 34.5312C227.229 34.5312 228.063 34.2917 228.636 33.8125C229.219 33.3333 229.511 32.7604 229.511 32.0938C229.511 31.5104 229.292 31.026 228.854 30.6406C228.427 30.2552 227.74 29.9844 226.792 29.8281L225.057 29.5312C224.474 29.4271 223.86 29.2917 223.214 29.125C222.568 28.9479 221.959 28.6979 221.386 28.375C220.813 28.0417 220.344 27.5938 219.979 27.0312C219.625 26.4583 219.448 25.7344 219.448 24.8594C219.448 23.7448 219.745 22.8073 220.339 22.0469C220.932 21.2865 221.735 20.7135 222.745 20.3281C223.766 19.9323 224.912 19.7344 226.182 19.7344C227.422 19.7344 228.531 19.9219 229.511 20.2969C230.5 20.6615 231.318 21.1979 231.964 21.9062C232.62 22.6146 233.047 23.4844 233.245 24.5156L229.526 25.2656C229.453 24.7656 229.302 24.3125 229.073 23.9062C228.844 23.4896 228.5 23.1615 228.042 22.9219C227.594 22.6719 227 22.5469 226.261 22.5469C225.396 22.5469 224.682 22.724 224.12 23.0781C223.557 23.4219 223.276 23.9167 223.276 24.5625C223.276 24.9896 223.401 25.3438 223.651 25.625C223.912 25.8958 224.276 26.1198 224.745 26.2969C225.214 26.474 225.766 26.625 226.401 26.75L228.276 27.1094C229.162 27.2552 229.995 27.5104 230.776 27.875C231.557 28.2292 232.188 28.7292 232.667 29.375C233.156 30.0208 233.401 30.8698 233.401 31.9219C233.401 33.0885 233.094 34.0833 232.479 34.9062C231.865 35.7188 231.021 36.3385 229.948 36.7656C228.875 37.1823 227.651 37.3906 226.276 37.3906Z" fill="#D9D9D9"/>
<g clip-path="url(#clip1_1720_6664)">
<path d="M31 16C35.8234 16 40.3809 16.5693 44.4186 17.5806L44.4188 17.5809C45.4303 21.6187 46 26.1764 46 31C46 35.8236 45.4302 40.3811 44.4188 44.4188C40.3811 45.4302 35.8236 46 31 46V61C30.6079 61 30.2194 60.9694 29.8349 60.9104C29.7129 60.8916 29.5913 60.8702 29.4701 60.8456C29.4017 60.8317 29.3335 60.8168 29.2653 60.8011C29.1533 60.7753 29.0417 60.7471 28.9305 60.7164C28.9129 60.7116 28.8953 60.7067 28.8777 60.7018C28.7681 60.6707 28.6588 60.6373 28.5499 60.6016C28.3007 60.5197 28.0536 60.4253 27.8087 60.3191C27.7954 60.3134 27.7821 60.3077 27.7688 60.3019C23.3004 58.3397 19.5783 52.3933 17.5809 44.4188L17.5806 44.4186C16.5693 40.3809 16 35.8234 16 31C16 26.1764 16.5694 21.6187 17.5809 17.5809C21.6187 16.5694 26.1764 16 31 16Z" fill="#00B815"/>
<path fill-rule="evenodd" clip-rule="evenodd" d="M31 0C48.1208 0 62 13.8792 62 31C62 48.1208 48.1208 62 31 62C13.8792 62 0 48.1208 0 31C0 13.8792 13.8792 0 31 0ZM31 16.8544C26.7687 16.8612 22.5091 17.2834 18.4041 18.2549C18.3308 18.2723 18.2736 18.3294 18.2563 18.4028C17.3597 22.2118 16.8544 26.4813 16.8544 31C16.8544 39.2013 18.5185 46.5816 21.1667 51.8781C23.5635 56.6716 26.6454 59.5505 29.8709 60.0979C29.9903 60.1182 30.0971 60.0246 30.0971 59.9035V45.341C30.0971 45.2294 30.1885 45.1394 30.3001 45.1408C30.5334 45.1437 30.7667 45.1455 31 45.1456C35.1461 45.0976 39.4667 44.7326 43.5834 43.7905C43.6573 43.7736 43.7151 43.7164 43.7325 43.6426C44.6359 39.8221 45.1456 35.5367 45.1456 31C45.1456 26.4632 44.6359 22.1777 43.7325 18.3571C43.7151 18.2833 43.6573 18.2261 43.5834 18.2092C39.4667 17.2671 35.1461 16.9024 31 16.8544ZM43.0908 46.0607C43.1335 45.9163 43.0065 45.779 42.8589 45.8086C39.3062 46.5212 35.6598 46.8271 32.0976 46.9268C31.9893 46.9298 31.9029 47.0185 31.9029 47.1269V59.9035C31.9029 60.0246 32.0097 60.1182 32.1291 60.0979C35.3546 59.5505 38.4365 56.6716 40.8333 51.8781C41.6989 50.1469 42.4592 48.193 43.0908 46.0607ZM3.08288 38.0911C2.94082 37.9314 2.66635 38.0668 2.71943 38.2738C5.36629 48.5952 13.5145 56.7115 23.8542 59.3129C24.0576 59.3641 24.1922 59.1006 24.0388 58.9576C22.3238 57.358 20.811 55.205 19.5513 52.6858C18.4638 50.5107 17.5415 48.0225 16.8203 45.2989C16.8022 45.2306 16.75 45.1768 16.6821 45.1573C12.0014 43.8162 6.47071 41.8973 3.08288 38.0911ZM59.3109 38.153C59.3622 37.9495 59.0979 37.8147 58.9541 37.9676C58.9107 38.0139 58.867 38.0597 58.823 38.1051C54.9194 41.7701 50.2437 43.9616 45.2989 45.2485C45.2288 45.2668 45.1738 45.3214 45.1552 45.3913C44.4376 48.0788 43.5239 50.5353 42.4487 52.6858C41.189 55.205 39.676 57.358 37.9609 58.9576C37.8075 59.1006 37.9422 59.3641 38.1456 59.3129C48.5256 56.7015 56.6968 48.5319 59.3109 38.153ZM47.1418 31.9029C47.0325 31.9029 46.9435 31.9908 46.9415 32.1001C46.8738 35.9218 46.4547 39.5738 45.743 42.9298C45.7117 43.0778 45.8488 43.2064 45.9938 43.1638C50.3132 41.8961 54.311 39.9023 57.5178 36.8575C58.818 35.5104 59.8023 33.8715 60.1001 32.1292C60.1205 32.0098 60.027 31.9029 59.9058 31.9029H47.1418ZM2.14703 31.9029C2.02338 31.9029 1.92941 32.0151 1.95309 32.1365C3.09482 37.9865 9.88687 41.2769 15.9906 43.0942C16.1359 43.1374 16.273 43.0085 16.2418 42.8602C15.5391 39.5233 15.1257 35.8953 15.0585 32.1001C15.0565 31.9908 14.9675 31.9029 14.8582 31.9029H2.14703ZM16.244 19.13C16.2752 18.9819 16.1377 18.8533 15.9926 18.8962C15.1256 19.1524 14.2672 19.4348 13.4197 19.7456C8.45036 21.6055 2.80008 24.8722 1.92132 29.8682C1.9002 29.9883 1.99382 30.0971 2.11571 30.0971H14.8582C14.9675 30.0971 15.0565 30.0092 15.0585 29.8999C15.1257 26.1009 15.54 22.4696 16.244 19.13ZM45.9938 18.8359C45.8488 18.7933 45.7117 18.9219 45.743 19.0699C46.4548 22.426 46.8738 26.0781 46.9415 29.8999C46.9435 30.0092 47.0325 30.0971 47.1418 30.0971H59.9058C60.027 30.0971 60.1205 29.9902 60.1001 29.8707C59.8023 28.1285 58.818 26.4896 57.5178 25.1425C54.3109 22.0977 50.3132 20.1036 45.9938 18.8359ZM38.1456 2.68677C37.9422 2.6356 37.8075 2.89907 37.9609 3.04212C39.6761 4.64174 41.189 6.79489 42.4487 9.31423C43.5239 11.4646 44.4376 13.921 45.1552 16.6084C45.1738 16.6783 45.2288 16.733 45.2989 16.7512C50.2437 18.0381 54.9194 20.2299 58.823 23.8949C58.8669 23.9402 58.9106 23.986 58.954 24.0322C59.0978 24.1852 59.3622 24.0503 59.3109 23.8467C56.6967 13.4679 48.5255 5.2982 38.1456 2.68677ZM24.0388 3.04213C24.1922 2.89908 24.0575 2.6356 23.8541 2.68678C13.506 5.29032 5.3528 13.4182 2.71285 23.7518C2.66061 23.9563 2.92797 24.0921 3.07153 23.9374C5.66866 21.1385 9.47759 19.3471 12.7927 18.0521C14.0728 17.5833 15.3708 17.1766 16.682 16.8267C16.7516 16.8081 16.806 16.7535 16.8245 16.6839C17.5451 13.967 18.4661 11.4848 19.5513 9.31423C20.811 6.79497 22.3238 4.64176 24.0388 3.04213ZM30.0971 2.09621C30.0971 1.97507 29.9903 1.88152 29.8709 1.90179C26.6454 2.44923 23.5635 5.32833 21.1667 10.1219C20.2941 11.8671 19.5282 13.8384 18.8936 15.9908C18.8508 16.136 18.9796 16.2735 19.1276 16.2421C22.6716 15.4908 26.2911 15.1267 29.9002 15.0601C30.0094 15.0581 30.0971 14.9691 30.0971 14.8598V2.09621ZM31.9029 14.8728C31.9029 14.9812 31.9893 15.0699 32.0976 15.0729C35.6598 15.1726 39.3062 15.4786 42.8589 16.1911C43.0065 16.2207 43.1335 16.0834 43.0908 15.939C42.4592 13.8068 41.6988 11.853 40.8333 10.1219C38.4365 5.32833 35.3546 2.44923 32.1291 1.90179C32.0097 1.88152 31.9029 1.97507 31.9029 2.09621V14.8728Z" fill="#D9D9D9"/>
<path d="M31 25.5C32.1937 25.5 33.3725 25.5106 34.5334 25.5313C35.5949 25.5501 36.4495 26.4047 36.4685 27.4663C36.4892 28.6273 36.5 29.8062 36.5 31C36.5 32.1937 36.4892 33.3725 36.4685 34.5334C36.4495 35.5949 35.5949 36.4495 34.5334 36.4685C33.3725 36.4892 32.1937 36.5 31 36.5C29.8062 36.5 28.6273 36.4892 27.4663 36.4685C26.4047 36.4495 25.5501 35.5949 25.5313 34.5334C25.5106 33.3725 25.5 32.1937 25.5 31C25.5 29.8062 25.5106 28.6273 25.5313 27.4663C25.5501 26.4047 26.4047 25.5501 27.4663 25.5313C28.6273 25.5106 29.8062 25.5 31 25.5Z" fill="#1E1E1E"/>
</g>
<path d="M73.0668 55L71.4701 47.9688H73.0814L74.1947 54.1357H74.0336L75.4057 47.9688H77.2562L78.6234 54.1357H78.4623L79.5756 47.9688H81.182L79.5854 55H77.5102L76.2553 49.1895H76.3969L75.1469 55H73.0668ZM86.2854 55V47.9688H91.2463V49.2432H87.7941V50.6934H90.7238V51.9141H87.7941V53.7256H91.3146V55H86.2854ZM96.5791 55V47.9688H99.6943C100.495 47.9688 101.099 48.1152 101.506 48.4082C101.913 48.6979 102.116 49.1211 102.116 49.6777C102.116 50.0358 102.043 50.3239 101.896 50.542C101.75 50.7601 101.566 50.9245 101.345 51.0352C101.123 51.1426 100.9 51.2126 100.676 51.2451L100.69 51.2256C101.198 51.307 101.6 51.5007 101.896 51.8066C102.196 52.1094 102.346 52.5293 102.346 53.0664C102.346 53.5514 102.23 53.9355 101.999 54.2188C101.771 54.502 101.468 54.7038 101.091 54.8242C100.713 54.9414 100.301 55 99.8555 55H96.5791ZM98.0879 53.8281H99.5918C99.9173 53.8281 100.168 53.7826 100.344 53.6914C100.523 53.597 100.646 53.4749 100.715 53.3252C100.786 53.1722 100.822 53.0062 100.822 52.8271C100.822 52.6188 100.775 52.4398 100.681 52.29C100.59 52.137 100.443 52.0182 100.241 51.9336C100.043 51.849 99.779 51.8066 99.4502 51.8066H98.0879V53.8281ZM98.0879 50.6982H99.582C99.8978 50.6982 100.147 50.638 100.329 50.5176C100.511 50.3939 100.603 50.1937 100.603 49.917C100.603 49.6859 100.529 49.4987 100.383 49.3555C100.236 49.2122 99.9775 49.1406 99.6064 49.1406H98.0879V50.6982ZM113.876 55V47.9688H116.556C117.399 47.9688 118.088 48.1071 118.622 48.3838C119.159 48.6572 119.554 49.0544 119.808 49.5752C120.065 50.096 120.194 50.7259 120.194 51.4648C120.194 52.2428 120.056 52.8939 119.779 53.418C119.505 53.9421 119.097 54.3376 118.553 54.6045C118.01 54.8682 117.336 55 116.532 55H113.876ZM115.384 53.7256H116.371C117.865 53.7256 118.612 52.9785 118.612 51.4844C118.612 51.0124 118.532 50.6104 118.373 50.2783C118.216 49.943 117.976 49.6875 117.65 49.5117C117.324 49.3327 116.908 49.2432 116.4 49.2432H115.384V53.7256ZM125.439 55V47.9688H130.4V49.2432H126.948V50.6934H129.877V51.9141H126.948V53.7256H130.468V55H125.439ZM137.627 55L135.171 47.9688H136.792L138.672 54.0527H138.53L140.41 47.9688H142.031L139.575 55H137.627ZM147.062 55V47.9688H152.022V49.2432H148.57V50.6934H151.5V51.9141H148.57V53.7256H152.091V55H147.062ZM157.355 55V47.9688H158.864V53.7256H162.253V55H157.355ZM170.129 55.127C169.41 55.127 168.788 54.9805 168.264 54.6875C167.74 54.3913 167.337 53.9714 167.053 53.4277C166.77 52.8809 166.629 52.2331 166.629 51.4844C166.629 50.7324 166.77 50.0846 167.053 49.541C167.337 48.9974 167.74 48.5791 168.264 48.2861C168.788 47.9899 169.412 47.8418 170.134 47.8418C170.854 47.8418 171.476 47.9899 172 48.2861C172.524 48.5791 172.927 48.9974 173.211 49.541C173.494 50.0846 173.635 50.7324 173.635 51.4844C173.635 52.2331 173.494 52.8809 173.211 53.4277C172.927 53.9714 172.524 54.3913 172 54.6875C171.476 54.9805 170.852 55.127 170.129 55.127ZM170.129 53.8525C170.533 53.8525 170.878 53.7581 171.165 53.5693C171.451 53.3805 171.671 53.1104 171.824 52.7588C171.977 52.404 172.053 51.9792 172.053 51.4844C172.053 50.9863 171.977 50.5615 171.824 50.21C171.671 49.8584 171.451 49.5882 171.165 49.3994C170.878 49.2106 170.533 49.1162 170.129 49.1162C169.729 49.1162 169.386 49.2106 169.099 49.3994C168.813 49.5882 168.593 49.8584 168.44 50.21C168.287 50.5615 168.211 50.9863 168.211 51.4844C168.211 51.9792 168.287 52.404 168.44 52.7588C168.593 53.1104 168.813 53.3805 169.099 53.5693C169.386 53.7581 169.729 53.8525 170.129 53.8525ZM178.871 55V47.9688H182.122C182.962 47.9688 183.591 48.1445 184.007 48.4961C184.427 48.8477 184.637 49.3701 184.637 50.0635C184.637 50.7503 184.414 51.2712 183.968 51.626C183.522 51.9775 182.847 52.1533 181.942 52.1533H180.379V55H178.871ZM180.379 50.9863H182.03C182.388 50.9863 182.661 50.9066 182.85 50.7471C183.039 50.5843 183.133 50.3581 183.133 50.0684C183.133 49.7982 183.042 49.5768 182.86 49.4043C182.681 49.2285 182.396 49.1406 182.005 49.1406H180.379V50.9863ZM189.604 55L189.994 47.9688H192.446L193.866 53.9844H193.691L195.121 47.9688H197.572L197.963 55H196.493L196.181 49.043H196.196L194.706 55H192.861L191.371 49.043H191.386L191.073 55H189.604ZM203.354 55V47.9688H208.315V49.2432H204.863V50.6934H207.793V51.9141H204.863V53.7256H208.384V55H203.354ZM213.648 55V47.9688H215.811L218.961 54.2529L218.492 54.2822V47.9688H219.932V55H217.823L214.595 48.6816L215.089 48.6475V55H213.648ZM227.506 55V49.2432H225.021V47.9688H231.51V49.2432H229.015V55H227.506Z" fill="#D9D9D9"/>
</g>
<defs>
<clipPath id="clip0_1720_6664">
<rect width="235" height="62" fill="white"/>
</clipPath>
<clipPath id="clip1_1720_6664">
<rect width="62" height="62" fill="white"/>
</clipPath>
</defs>
</svg>
